#!OML:ASF F:\VICON\USERDATA\INSTALL\rory3\rory3.ASF
:FULLY-SPECIFIED
:DEGREES
82
root 0.6727532957667246 17.916073818311123 11.627677585973904 3.246182068751841 -2.7865113611072747 -3.2677683695040156
lfemur -33.4131605375333 2.659229587321329 -18.185132691177998
ltibia 73.5903456089197
lfoot 9.327217542430791 -9.782877094262577
ltoes -31.77325874419949
rfemur 0.1499102853566523 5.008640342072176 31.88955940642775
rtibia 47.61229135299053
rfoot 5.704447239874575 -5.848440981608857
rtoes -5.893005156674459
lowerback 13.753633726821974 2.2103033808001418 3.265912537332733
upperback -0.9879537031536861 3.506411118291642 0.15298821743279456
thorax -7.69708909836123 1.620999449498938 -2.0703808466767892
lowerneck -17.431284386314378 -5.389949240947622 -2.631343618813818
upperneck 7.829763066634783 -7.5495846842412355 5.930603898230208
head 5.619546695644696 -3.247285480124754 1.5939211148528438
lclavicle -1.3367475555216624e-15 -2.758979314864244e-15
lhumerus -40.97941788452015 -11.420252963471684 89.73197312717605
lradius 108.11382303620826
lwrist 30.963830760518277
lhand -22.49612126288374 3.2941065179426454
lfingers 7.12502
lthumb 3.791506757054279 32.93659115458155
rclavicle -1.3367475554572833e-15 -2.7589793148180723e-15
rhumerus -56.677751335605095 5.366755800793058 -94.813699341754
rradius 116.52249754951585
rwrist -22.416065246390243
rhand -19.62445566111358 41.81664661571577
rfingers 7.12502
rthumb 6.23191955483123 11.625557385329735
83
root 0.68335504698031 17.883399372062986 12.139841701265924 3.137092595810799 -2.4501224856959496 -3.061855266039281
lfemur -33.00168049242072 2.384355475054329 -18.735599141028267
ltibia 70.75397246270995
lfoot 8.213808679123746 -9.84913365529186
ltoes -29.587067667980225
rfemur 0.7862441434501299 4.994255606317646 31.646945801443575
rtibia 49.90460265684399
rfoot 4.956366475995109 -5.683249945948465
rtoes -4.622568583724661
lowerback 13.738833333765506 2.1787298760707925 3.0705439048621135
upperback -0.9566492512435875 3.4217685274644136 0.014211830159728933
thorax -7.687230216776792 1.5914211298128893 -1.9840861623946477
lowerneck -17.528184640727694 -5.365828717307344 -2.637865540311813
upperneck 7.602083681156717 -7.522599453943505 6.036080252090819
head 5.466035449216674 -3.2349582140261064 1.6363476786139497
lclavicle -1.3367475555192505e-15 -2.758979314862742e-15
lhumerus -40.95365210796788 -11.532356998841127 89.88783705890471
lradius 107.1365883260264
lwrist 31.14213373941407
lhand -22.608225535150712 3.431612737678174
lfingers 7.12502
lthumb 3.5352787501174703 32.89750222773435
rclavicle -1.3367475554508168e-15 -2.7589793148134287e-15
rhumerus -56.08908391355023 5.525586354102323 -94.86204153051389
rradius 116.22988085205459
rwrist -22.4732996368377
rhand -19.699075211746823 41.31605237836942
rfingers 7.12502
rthumb 6.210088012960975 11.236074345678865
84
root 0.6923701607659261 17.855832106289167 12.692928386743532 3.0597245943729177 -2.0982843622644447 -2.8806220473490596
lfemur -32.48704534292361 2.0884756526348944 -19.25400757841611
ltibia 67.8278640725436
lfoot 7.294105215744599 -9.724381513719841
ltoes -26.442502186289623
rfemur 1.255444539167975 4.952516546656475 31.413147815331175
rtibia 52.31358475317661
rfoot 4.094418508728751 -5.546584097166729
rtoes -4.101068004616383
lowerback 13.740598749285837 2.140409996850027 2.893001319203057
upperback -0.9460237988798778 3.3387522226709594 -0.09367276435834904
thorax -7.698595207973877 1.56712271874138 -1.8955289250859437
lowerneck -17.61820588599675 -5.34303463686352 -2.6410178642030595
upperneck 7.3948316392725895 -7.4929348885966585 6.139061714628665
head 5.324393250793613 -3.218244074824344 1.677323819502656
lclavicle -1.3367475555195404e-15 -2.7589793148632583e-15
lhumerus -41.05212896323741 -11.573791596899571 90.02346860339777
lradius 106.31288977891413
lwrist 31.23881212489791
lhand -22.964476440581983 3.3756889455483354
lfingers 7.12502
lthumb 3.385229392242449 33.02604678309674
rclavicle -1.3367475554446151e-15 -2.758979314808875e-15
rhumerus -55.48276869443445 5.722515366080565 -94.93894132897078
rradius 115.92889120361353
rwrist -22.467293028224624
rhand -19.696967898225008 40.880853294052145
rfingers 7.12502
rthumb 6.189081279666381 10.794387870704151
85
root 0.6912432997900523 17.817438118235515 13.203304050373777 2.987955700409465 -1.7699230135749968 -2.7295923271688443
lfemur -31.89366992749946 1.8144685687010074 -19.71064145608336
ltibia 64.83163343837639
lfoot 6.5550137433282085 -9.409857805972232
ltoes -23.757355734193773
rfemur 1.5167554397222496 4.923425502014769 31.190969451849757
rtibia 54.88607017876495
rfoot 3.2089347308482443 -5.638380943412983
rtoes -3.8364749839294277
lowerback 13.812181218826801 2.103560644028917 2.7128700556604803
upperback -0.9263909037933137 3.2587748377389305 -0.15374945335618184
thorax -7.746845915436326 1.549710897355581 -1.7793674560879489
lowerneck -17.728203720350805 -5.323776323044922 -2.632323957417211
upperneck 7.182941051650593 -7.467534299811264 6.233475276273346
head 5.225118016715493 -3.198198133614079 1.7085522301795768
lclavicle -1.3367475555180352e-15 -2.7589793148622888e-15
lhumerus -41.11019643594568 -11.610231629221033 90.11255726345301
lradius 105.58407103513765
lwrist 31.299434078591837
lhand -22.983620094353494 3.5972358671083824
lfingers 7.12502
lthumb 3.3862584963565614 33.3088528490412
rclavicle -1.336747555439308e-15 -2.7589793148049315e-15
rhumerus -54.868490543372324 5.956877279122133 -95.04303239178472
rradius 115.61254325655425
rwrist -22.408528914765455
rhand -19.641542878667302 40.50616333044609
rfingers 7.12502
rthumb 6.154976965672722 10.294260600751924
86
root 0.7000283732545048 17.77961150830609 13.825074908009745 2.9234226487104307 -1.452002825099195 -2.532569356555597
lfemur -31.139985037091026 1.562299058389491 -20.23463310964051
ltibia 61.79448841509981
lfoot 5.4185365526154134 -9.221211311728513
ltoes -22.643164092746183
rfemur 1.6977230789938638 4.805604674490564 30.864878401907927
rtibia 57.57026384790505
rfoot 2.2194510400131566 -5.6957746662506
rtoes -2.31026972716307
lowerback 13.830009915180232 2.0572445940058968 2.514486830173104
upperback -0.8817568248826205 3.158043017978356 -0.2334563785110928
thorax -7.761974221630663 1.5097119715638743 -1.6910772902132631
lowerneck -17.845945363831223 -5.298497874780953 -2.606683160957756
upperneck 6.96058155727662 -7.433931850555362 6.316331614250186
head 5.131750591076384 -3.1772653820658627 1.7327623184726284
lclavicle -1.3367475555177708e-15 -2.758979314862314e-15
lhumerus -41.13959788882368 -11.59841206323446 90.22871231065938
lradius 104.98223606696885
lwrist 31.32682158986618
lhand -23.110061300451815 3.6767324262878
lfingers 7.12502
lthumb 3.323764342789194 33.489738594650305
rclavicle -1.3367475554339462e-15 -2.7589793148009825e-15
rhumerus -54.25260521521164 6.218294125039962 -95.15706006093666
rradius 115.30022094528506
rwrist -22.33491466920738
rhand -19.595650767333606 40.12087317960685
rfingers 7.12502
rthumb 6.107330365563764 9.776340561762192
87
root 0.7028053912241677 17.745767688417825 14.512959646755345 2.9025822840660855 -1.150329805833743 -2.363554628051988
lfemur -30.319306449380896 1.3258004937618364 -20.70547965074
ltibia 58.751632540614494
lfoot 5.509311998835743 -8.597373924387593
ltoes -19.789522492947988
rfemur 1.6455818650101968 4.687935882206903 30.555197699079415
rtibia 60.36552484072005
rfoot 1.223348205878966 -5.819804780015243
rtoes -0.5295839771896347
lowerback 13.872038380506545 2.002822216438834 2.3193109718402347
upperback -0.8557589751998076 3.0586534389792677 -0.27349305276057123
thorax -7.852072127711173 1.4740446852568263 -1.5731142401675413
lowerneck -17.87950141253419 -5.262936094398889 -2.5581670845843507
upperneck 6.723766883733103 -7.391023369218146 6.3888166921789304
head 5.027813913594287 -3.1557710512677173 1.7536950049017723
lclavicle -1.336747555519634e-15 -2.7589793148638697e-15
lhumerus -41.17961502191664 -11.47433478863351 90.32896341285642
lradius 104.52509890632507
lwrist 31.35707744503403
lhand -23.279088968256275 3.697844082522388
lfingers 7.12502
lthumb 3.333877899712232 33.71669354890015
rclavicle -1.3367475554301052e-15 -2.7589793147980802e-15
rhumerus -53.65571739303015 6.496512689509948 -95.28323471381931
rradius 114.99296723912391
rwrist -22.191405980863983
rhand -19.537914028770462 39.67974290808745
rfingers 7.12502
rthumb 6.083555640103094 9.230528122996864
